<svg width="31" height="32" viewBox="0 0 31 32" fill="none" xmlns="http://www.w3.org/2000/svg">
<path d="M26.3471 4V30H6.65946C5.91353 30 5.19815 29.6839 4.6707 29.1213C4.14325 28.5587 3.84694 27.7956 3.84694 27C3.84694 26.2044 4.14325 25.4413 4.6707 24.8787C5.19815 24.3161 5.91353 24 6.65946 24H24.4721V0H5.72195C3.65944 0 1.97192 1.8 1.97192 4V28C1.97192 30.2 3.65944 32 5.72195 32H28.2221V4H26.3471Z" fill="#1E1E1E"/>
<path d="M6.66138 26C6.41274 26 6.17428 26.1054 5.99847 26.2929C5.82265 26.4804 5.72388 26.7348 5.72388 27C5.72388 27.2652 5.82265 27.5196 5.99847 27.7071C6.17428 27.8946 6.41274 28 6.66138 28H24.4721V26H6.66138Z" fill="#1E1E1E"/>
</svg>
