<svg width="25" height="24" viewBox="0 0 25 24" fill="none" xmlns="http://www.w3.org/2000/svg">
<g clip-path="url(#clip0_3343_414)">
<path d="M12.0769 2.163C15.2809 2.163 15.6609 2.175 16.9269 2.233C20.1789 2.381 21.6979 3.924 21.8459 7.152C21.9039 8.417 21.9149 8.797 21.9149 12.001C21.9149 15.206 21.9029 15.585 21.8459 16.85C21.6969 20.075 20.1819 21.621 16.9269 21.769C15.6609 21.827 15.2829 21.839 12.0769 21.839C8.8729 21.839 8.4929 21.827 7.2279 21.769C3.9679 21.62 2.4569 20.07 2.3089 16.849C2.2509 15.584 2.2389 15.205 2.2389 12C2.2389 8.796 2.2519 8.417 2.3089 7.151C2.4579 3.924 3.9729 2.38 7.2279 2.232C8.4939 2.175 8.8729 2.163 12.0769 2.163ZM12.0769 0C8.8179 0 8.4099 0.014 7.1299 0.072C2.7719 0.272 0.349904 2.69 0.149904 7.052C0.0909043 8.333 0.0769043 8.741 0.0769043 12C0.0769043 15.259 0.0909043 15.668 0.148904 16.948C0.348904 21.306 2.7669 23.728 7.1289 23.928C8.4099 23.986 8.8179 24 12.0769 24C15.3359 24 15.7449 23.986 17.0249 23.928C21.3789 23.728 23.8069 21.31 24.0039 16.948C24.0629 15.668 24.0769 15.259 24.0769 12C24.0769 8.741 24.0629 8.333 24.0049 7.053C23.8089 2.699 21.3879 0.273 17.0259 0.073C15.7449 0.014 15.3359 0 12.0769 0ZM12.0769 5.838C8.6739 5.838 5.9149 8.597 5.9149 12C5.9149 15.403 8.6739 18.163 12.0769 18.163C15.4799 18.163 18.2389 15.404 18.2389 12C18.2389 8.597 15.4799 5.838 12.0769 5.838ZM12.0769 16C9.8679 16 8.0769 14.21 8.0769 12C8.0769 9.791 9.8679 8 12.0769 8C14.2859 8 16.0769 9.791 16.0769 12C16.0769 14.21 14.2859 16 12.0769 16ZM18.4829 4.155C17.6869 4.155 17.0419 4.8 17.0419 5.595C17.0419 6.39 17.6869 7.035 18.4829 7.035C19.2779 7.035 19.9219 6.39 19.9219 5.595C19.9219 4.8 19.2779 4.155 18.4829 4.155Z" fill="#1E1E1E"/>
</g>
<defs>
<clipPath id="clip0_3343_414">
<rect width="24" height="24" fill="white" transform="translate(0.0769043)"/>
</clipPath>
</defs>
</svg>
