<svg width="25" height="24" viewBox="0 0 25 24" fill="none" xmlns="http://www.w3.org/2000/svg">
<g clip-path="url(#clip0_3343_418)">
<path d="M19.0769 0H5.0769C2.3159 0 0.0769043 2.239 0.0769043 5V19C0.0769043 21.761 2.3159 24 5.0769 24H19.0769C21.8389 24 24.0769 21.761 24.0769 19V5C24.0769 2.239 21.8389 0 19.0769 0ZM8.0769 19H5.0769V8H8.0769V19ZM6.5769 6.732C5.6109 6.732 4.8269 5.942 4.8269 4.968C4.8269 3.994 5.6109 3.204 6.5769 3.204C7.5429 3.204 8.3269 3.994 8.3269 4.968C8.3269 5.942 7.5439 6.732 6.5769 6.732ZM20.0769 19H17.0769V13.396C17.0769 10.028 13.0769 10.283 13.0769 13.396V19H10.0769V8H13.0769V9.765C14.4729 7.179 20.0769 6.988 20.0769 12.241V19Z" fill="#1E1E1E"/>
</g>
<defs>
<clipPath id="clip0_3343_418">
<rect width="24" height="24" fill="white" transform="translate(0.0769043)"/>
</clipPath>
</defs>
</svg>
