<svg width="332" height="51" viewBox="0 0 332 51" fill="none" xmlns="http://www.w3.org/2000/svg">
<path d="M69.3042 39V11.133H82.9193C86.4225 11.133 89.05 11.7965 90.8016 13.1235C92.5798 14.4505 93.4689 16.2021 93.4689 18.3784C93.4689 19.8381 93.1106 21.112 92.394 22.2002C91.6775 23.2618 90.6955 24.0845 89.4481 24.6684C88.2007 25.2523 86.7676 25.5442 85.1486 25.5442L85.905 23.912C87.6566 23.912 89.2092 24.2039 90.5628 24.7878C91.9163 25.3452 92.9646 26.1812 93.7078 27.2959C94.4774 28.4105 94.8623 29.7773 94.8623 31.3963C94.8623 33.7849 93.9201 35.656 92.0357 37.0095C90.1514 38.3365 87.378 39 83.7155 39H69.3042ZM75.7136 34.1432H83.2377C84.9098 34.1432 86.1704 33.8778 87.0197 33.347C87.8955 32.7896 88.3334 31.9138 88.3334 30.7195C88.3334 29.5518 87.8955 28.6892 87.0197 28.1319C86.1704 27.548 84.9098 27.256 83.2377 27.256H75.2359V22.5585H82.1231C83.6889 22.5585 84.8832 22.2931 85.706 21.7623C86.5552 21.2049 86.9799 20.3689 86.9799 19.2542C86.9799 18.1661 86.5552 17.3566 85.706 16.8258C84.8832 16.2685 83.6889 15.9898 82.1231 15.9898H75.7136V34.1432ZM113.28 39.4777C111.077 39.4777 109.034 39.1194 107.15 38.4028C105.292 37.6863 103.673 36.6777 102.293 35.3773C100.939 34.0768 99.8776 32.5508 99.1079 30.7991C98.3648 29.0475 97.9932 27.1366 97.9932 25.0665C97.9932 22.9964 98.3648 21.0855 99.1079 19.3339C99.8776 17.5822 100.952 16.0562 102.333 14.7557C103.713 13.4552 105.332 12.4467 107.189 11.7301C109.047 11.0136 111.064 10.6553 113.24 10.6553C115.443 10.6553 117.46 11.0136 119.292 11.7301C121.149 12.4467 122.755 13.4552 124.109 14.7557C125.489 16.0562 126.564 17.5822 127.333 19.3339C128.103 21.059 128.488 22.9698 128.488 25.0665C128.488 27.1366 128.103 29.0608 127.333 30.8389C126.564 32.5906 125.489 34.1166 124.109 35.4171C122.755 36.691 121.149 37.6863 119.292 38.4028C117.46 39.1194 115.457 39.4777 113.28 39.4777ZM113.24 33.9839C114.488 33.9839 115.629 33.7716 116.664 33.347C117.726 32.9223 118.655 32.3119 119.451 31.5157C120.247 30.7195 120.857 29.7773 121.282 28.6892C121.733 27.6011 121.959 26.3935 121.959 25.0665C121.959 23.7395 121.733 22.5319 121.282 21.4438C120.857 20.3556 120.247 19.4135 119.451 18.6173C118.681 17.8211 117.766 17.2107 116.704 16.786C115.642 16.3614 114.488 16.1491 113.24 16.1491C111.993 16.1491 110.839 16.3614 109.777 16.786C108.742 17.2107 107.826 17.8211 107.03 18.6173C106.234 19.4135 105.61 20.3556 105.159 21.4438C104.734 22.5319 104.522 23.7395 104.522 25.0665C104.522 26.367 104.734 27.5745 105.159 28.6892C105.61 29.7773 106.221 30.7195 106.99 31.5157C107.787 32.3119 108.715 32.9223 109.777 33.347C110.839 33.7716 111.993 33.9839 113.24 33.9839ZM146.87 39.4777C144.667 39.4777 142.624 39.1194 140.739 38.4028C138.881 37.6863 137.262 36.6777 135.882 35.3773C134.529 34.0768 133.467 32.5508 132.698 30.7991C131.954 29.0475 131.583 27.1366 131.583 25.0665C131.583 22.9964 131.954 21.0855 132.698 19.3339C133.467 17.5822 134.542 16.0562 135.922 14.7557C137.302 13.4552 138.921 12.4467 140.779 11.7301C142.637 11.0136 144.654 10.6553 146.83 10.6553C149.033 10.6553 151.05 11.0136 152.881 11.7301C154.739 12.4467 156.345 13.4552 157.698 14.7557C159.078 16.0562 160.153 17.5822 160.923 19.3339C161.693 21.059 162.077 22.9698 162.077 25.0665C162.077 27.1366 161.693 29.0608 160.923 30.8389C160.153 32.5906 159.078 34.1166 157.698 35.4171C156.345 36.691 154.739 37.6863 152.881 38.4028C151.05 39.1194 149.046 39.4777 146.87 39.4777ZM146.83 33.9839C148.078 33.9839 149.219 33.7716 150.254 33.347C151.315 32.9223 152.244 32.3119 153.041 31.5157C153.837 30.7195 154.447 29.7773 154.872 28.6892C155.323 27.6011 155.549 26.3935 155.549 25.0665C155.549 23.7395 155.323 22.5319 154.872 21.4438C154.447 20.3556 153.837 19.4135 153.041 18.6173C152.271 17.8211 151.355 17.2107 150.294 16.786C149.232 16.3614 148.078 16.1491 146.83 16.1491C145.583 16.1491 144.428 16.3614 143.367 16.786C142.332 17.2107 141.416 17.8211 140.62 18.6173C139.824 19.4135 139.2 20.3556 138.749 21.4438C138.324 22.5319 138.112 23.7395 138.112 25.0665C138.112 26.367 138.324 27.5745 138.749 28.6892C139.2 29.7773 139.81 30.7195 140.58 31.5157C141.376 32.3119 142.305 32.9223 143.367 33.347C144.428 33.7716 145.583 33.9839 146.83 33.9839ZM172.697 32.6304L172.338 25.1859L185.675 11.133H192.841L180.818 24.0712L177.235 27.893L172.697 32.6304ZM166.924 39V11.133H173.334V39H166.924ZM185.993 39L176.081 26.8579L180.3 22.2798L193.517 39H185.993ZM204.966 39.4777C202.737 39.4777 200.6 39.1858 198.557 38.6019C196.513 37.9915 194.868 37.2085 193.62 36.2531L195.81 31.3963C197.004 32.2456 198.411 32.9489 200.03 33.5062C201.675 34.037 203.334 34.3024 205.006 34.3024C206.28 34.3024 207.302 34.183 208.071 33.9441C208.868 33.6787 209.451 33.3204 209.823 32.8693C210.195 32.4181 210.38 31.9005 210.38 31.3167C210.38 30.5735 210.088 29.9897 209.504 29.565C208.921 29.1138 208.151 28.7556 207.195 28.4902C206.24 28.1982 205.178 27.9328 204.011 27.694C202.869 27.4286 201.715 27.1101 200.547 26.7385C199.406 26.367 198.358 25.8892 197.402 25.3054C196.447 24.7215 195.664 23.9518 195.053 22.9964C194.47 22.0409 194.178 20.8201 194.178 19.3339C194.178 17.7415 194.602 16.295 195.452 14.9946C196.327 13.6676 197.628 12.6192 199.353 11.8496C201.105 11.0534 203.294 10.6553 205.922 10.6553C207.673 10.6553 209.398 10.8676 211.097 11.2922C212.795 11.6903 214.295 12.3008 215.595 13.1235L213.605 18.0201C212.304 17.277 211.004 16.7329 209.704 16.3879C208.403 16.0164 207.129 15.8306 205.882 15.8306C204.634 15.8306 203.613 15.9765 202.816 16.2685C202.02 16.5604 201.45 16.9453 201.105 17.423C200.76 17.8742 200.587 18.405 200.587 19.0154C200.587 19.732 200.879 20.3158 201.463 20.767C202.047 21.1917 202.816 21.5367 203.772 21.8021C204.727 22.0675 205.776 22.3329 206.917 22.5983C208.085 22.8637 209.239 23.1689 210.38 23.5139C211.548 23.8589 212.61 24.3234 213.565 24.9073C214.521 25.4911 215.29 26.2608 215.874 27.2162C216.484 28.1717 216.79 29.3792 216.79 30.8389C216.79 32.4048 216.352 33.838 215.476 35.1384C214.6 36.4389 213.286 37.4872 211.535 38.2834C209.81 39.0796 207.62 39.4777 204.966 39.4777ZM226.58 39V16.3879H217.663V11.133H241.947V16.3879H233.029V39H226.58ZM258.563 39.4777C256.361 39.4777 254.317 39.1194 252.433 38.4028C250.575 37.6863 248.956 36.6777 247.576 35.3773C246.222 34.0768 245.161 32.5508 244.391 30.7991C243.648 29.0475 243.276 27.1366 243.276 25.0665C243.276 22.9964 243.648 21.0855 244.391 19.3339C245.161 17.5822 246.236 16.0562 247.616 14.7557C248.996 13.4552 250.615 12.4467 252.473 11.7301C254.33 11.0136 256.347 10.6553 258.524 10.6553C260.726 10.6553 262.744 11.0136 264.575 11.7301C266.433 12.4467 268.038 13.4552 269.392 14.7557C270.772 16.0562 271.847 17.5822 272.616 19.3339C273.386 21.059 273.771 22.9698 273.771 25.0665C273.771 27.1366 273.386 29.0608 272.616 30.8389C271.847 32.5906 270.772 34.1166 269.392 35.4171C268.038 36.691 266.433 37.6863 264.575 38.4028C262.744 39.1194 260.74 39.4777 258.563 39.4777ZM258.524 33.9839C259.771 33.9839 260.912 33.7716 261.947 33.347C263.009 32.9223 263.938 32.3119 264.734 31.5157C265.53 30.7195 266.141 29.7773 266.565 28.6892C267.016 27.6011 267.242 26.3935 267.242 25.0665C267.242 23.7395 267.016 22.5319 266.565 21.4438C266.141 20.3556 265.53 19.4135 264.734 18.6173C263.964 17.8211 263.049 17.2107 261.987 16.786C260.926 16.3614 259.771 16.1491 258.524 16.1491C257.276 16.1491 256.122 16.3614 255.06 16.786C254.025 17.2107 253.109 17.8211 252.313 18.6173C251.517 19.4135 250.893 20.3556 250.442 21.4438C250.018 22.5319 249.805 23.7395 249.805 25.0665C249.805 26.367 250.018 27.5745 250.442 28.6892C250.893 29.7773 251.504 30.7195 252.273 31.5157C253.07 32.3119 253.999 32.9223 255.06 33.347C256.122 33.7716 257.276 33.9839 258.524 33.9839ZM278.618 39V11.133H290.68C293.175 11.133 295.325 11.5444 297.129 12.3671C298.934 13.1633 300.327 14.3178 301.309 15.8306C302.291 17.3434 302.782 19.1481 302.782 21.2447C302.782 23.3149 302.291 25.1063 301.309 26.6191C300.327 28.1053 298.934 29.2465 297.129 30.0427C295.325 30.8389 293.175 31.237 290.68 31.237H282.201L285.067 28.4105V39H278.618ZM296.333 39L289.366 28.8883H296.254L303.3 39H296.333ZM285.067 29.1271L282.201 26.1016H290.322C292.312 26.1016 293.799 25.6769 294.781 24.8276C295.763 23.9518 296.254 22.7575 296.254 21.2447C296.254 19.7054 295.763 18.5111 294.781 17.6618C293.799 16.8126 292.312 16.3879 290.322 16.3879H282.201L285.067 13.3225V29.1271ZM313.824 22.3594H327.24V27.3755H313.824V22.3594ZM314.302 33.8247H329.469V39H307.892V11.133H328.952V16.3083H314.302V33.8247Z" fill="white"/>
<g filter="url(#filter0_d_3407_703)">
<path d="M46.5 5.5C40.1616 5.52719 35.4497 6.4 32.04 7.90844C29.4956 9.03344 28.5 9.88469 28.5 12.7684V43C32.3972 39.4844 35.8556 38.5 49.5 38.5V5.5H46.5ZM7.5 5.5C13.8384 5.52719 18.5503 6.4 21.96 7.90844C24.5044 9.03344 25.5 9.88469 25.5 12.7684V43C21.6028 39.4844 18.1444 38.5 4.5 38.5V5.5H7.5Z" fill="white"/>
</g>
<defs>
<filter id="filter0_d_3407_703" x="-1" y="1" width="56" height="56" filterUnits="userSpaceOnUse" color-interpolation-filters="sRGB">
<feFlood flood-opacity="0" result="BackgroundImageFix"/>
<feColorMatrix in="SourceAlpha" type="matrix" values="0 0 0 0 0 0 0 0 0 0 0 0 0 0 0 0 0 0 127 0" result="hardAlpha"/>
<feOffset dy="4"/>
<feGaussianBlur stdDeviation="2"/>
<feComposite in2="hardAlpha" operator="out"/>
<feColorMatrix type="matrix" values="0 0 0 0 0 0 0 0 0 0 0 0 0 0 0 0 0 0 0.25 0"/>
<feBlend mode="normal" in2="BackgroundImageFix" result="effect1_dropShadow_3407_703"/>
<feBlend mode="normal" in="SourceGraphic" in2="effect1_dropShadow_3407_703" result="shape"/>
</filter>
</defs>
</svg>
